PathFileType	4	(X/Y/Z)	C:\Users\WrightLab\Desktop\Jo\P5V45.trc
DataRate	CameraRate	NumFrames	NumMarkers	Units	OrigDataRate	OrigDataStartFrame	OrigNumFrames
100.00	100.00	       14	19	mm	100.00	421	       840
Frame#	Time	Headset_Front			Headset_Back			Headset_Left			Headset_Right			Left_Shoulder			Right_Shoulder			Sternum			C7			Left Elbow			Right Elbow			Left Wrist			Right Wrist			Left ASIS			Right ASIS			S2			Left Knee			Right Knee			Left Ankle			Right Ankle			
		X1	Y1	Z1	X2	Y2	Z2	X3	Y3	Z3	X4	Y4	Z4	X5	Y5	Z5	X6	Y6	Z6	X7	Y7	Z7	X8	Y8	Z8	X9	Y9	Z9	X10	Y10	Z10	X11	Y11	Z11	X12	Y12	Z12	X13	Y13	Z13	X14	Y14	Z14	X15	Y15	Z15	X16	Y16	Z16	X17	Y17	Z17	X18	Y18	Z18	X19	Y19	Z19	

421	4.200	-655.99609	1704.29504	-279.63531							-713.69659	1648.68054	-56.08743	-508.58499	1489.16614	-355.16547	-788.93726	1423.10693	-64.70247	-613.73486	1284.69189	-168.12680	-748.49255	1506.87439	-289.32269	-483.87799	1189.23108	-466.73389	-848.34094	1138.52380	-43.15449	-469.30124	947.39404	-397.80820	-658.39984	1015.80725	31.73675	-521.09784	899.98474	-299.70126	-750.52899	910.81714	-123.91972	-786.23523	967.28131	-430.08328	-518.53418	491.24347	-256.59723	-888.31812	471.60529	-219.52069	-536.28778	85.34316	-172.19321	-922.95770	100.08182	-446.87030	
422	4.210	-651.98462	1704.16272	-274.36801							-709.80811	1648.37646	-52.04758	-504.54507	1488.93530	-350.57571	-784.12915	1423.57373	-59.27174	-607.52362	1285.99341	-162.62711	-744.18622	1506.06323	-284.34384	-479.16867	1188.21460	-461.92252	-845.18939	1137.88062	-39.19844	-465.56506	946.29437	-391.68057	-654.11609	1015.46143	37.02622	-514.70447	900.51141	-293.09906	-744.95258	910.66534	-117.14888	-782.38306	966.42706	-424.08005	-515.61145	489.24234	-251.30061	-884.25665	470.06812	-212.00662	-536.90173	85.52479	-170.01151	-922.67816	102.27545	-446.30533	
423	4.220	-647.73187	1704.94324	-268.61237							-704.33008	1647.76709	-46.68799	-500.03140	1488.42590	-346.34845	-779.92737	1427.28540	-51.56476	-603.08203	1284.89819	-157.59268	-738.47003	1503.65112	-278.79724	-474.75912	1188.10229	-454.96176	-839.21344	1137.43604	-31.76831	-461.76434	945.48932	-386.39862	-649.37030	1015.97125	42.52666	-511.75208	899.93439	-286.35550	-738.93396	911.13568	-110.75658	-778.43219	965.59351	-418.00757	-513.46466	487.57208	-247.27896	-880.27930	469.91940	-205.05128	-536.29651	84.84322	-167.59328	-922.32690	104.83551	-445.58322	
424	4.230	-643.60358	1705.87598	-263.37375							-697.37073	1646.35364	-40.10701	-495.38693	1488.12964	-341.90540	-773.23663	1423.76904	-49.19068	-597.70380	1285.13977	-152.44609	-735.25897	1505.64734	-274.70459	-470.45364	1186.48364	-449.09430	-834.43121	1137.99341	-26.12050	-458.51581	943.96387	-380.92365	-643.62518	1016.04523	48.46035	-506.42935	899.54291	-280.59869	-732.74213	910.99274	-104.10494	-774.48175	964.59363	-411.55682	-511.35602	485.56516	-242.57040	-876.58173	469.80508	-198.02289	-535.99860	86.13367	-165.79791	-921.85559	106.68195	-443.30011	
425	4.240	-639.37256	1707.00879	-258.24045							-691.42249	1645.96985	-34.27220	-491.27075	1488.47083	-337.88693	-769.46960	1423.37207	-44.59023	-592.48022	1286.49426	-147.46004	-730.71436	1505.69324	-270.02084	-466.23233	1186.21863	-445.61597	-829.37622	1138.56250	-20.96825	-453.68332	943.96124	-375.18085	-639.08655	1017.31091	54.38135	-499.18591	900.55219	-274.06799	-725.91772	911.07593	-97.85256	-770.07697	964.58765	-405.77869	-509.03845	484.00476	-237.83144	-872.39716	469.28949	-190.02876	-537.12823	85.34277	-163.76703	-921.71729	109.10451	-440.60373	
426	4.250	-635.15643	1708.63745	-252.43782							-687.34973	1646.88220	-29.33669	-486.49963	1488.30750	-334.10028	-763.78662	1425.28455	-39.13568	-587.51721	1287.44812	-142.01929	-726.04449	1505.85071	-265.27075	-461.26105	1186.11426	-440.53546	-824.85559	1139.17102	-15.58254	-449.82938	943.76105	-369.21960	-633.82782	1017.22260	58.98314	-495.24545	900.47736	-268.31091	-719.57483	912.15546	-90.26947	-765.93781	964.06659	-399.66498	-506.99698	483.53207	-233.33102	-867.56134	469.20435	-181.30583	-536.97174	85.86315	-161.10204	-921.10272	113.31239	-439.91733	
427	4.260	-631.07300	1710.43103	-246.71359							-680.16223	1647.13159	-22.60555	-482.11722	1489.35925	-330.27298	-759.30182	1425.29614	-35.20130	-580.97919	1288.21033	-137.15207	-721.46118	1506.30786	-260.66388	-457.55865	1186.05542	-434.25357	-819.44849	1140.14661	-10.31903	-444.29202	943.86212	-363.26022	-628.33649	1017.33319	64.87374	-490.20566	901.62573	-262.59412	-712.69080	913.14240	-83.34487	-761.53809	964.35205	-393.41821	-505.19431	484.00995	-227.01768	-862.28613	469.41046	-173.63342	-537.12256	86.52608	-160.34236	-920.62830	116.11042	-435.83636	
428	4.270	-626.84143	1712.80054	-241.22957							-673.38562	1647.24890	-17.52085	-477.62091	1490.06055	-325.79361	-754.33032	1427.49927	-29.33612	-575.63367	1289.41479	-132.45390	-715.84003	1505.22974	-254.76790	-452.48450	1186.89783	-427.17172	-813.66425	1141.54749	-3.53427	-440.92041	943.51923	-358.39578	-623.86523	1018.10791	69.71426	-485.23090	902.55096	-255.46011	-706.09955	913.90723	-77.07526	-757.03619	965.01923	-388.54553	-503.58710	485.26529	-221.50420	-857.28247	470.58917	-165.60445	-536.81055	86.84293	-160.07610	-920.31732	120.07605	-432.04517	
429	4.280	-622.65216	1714.93530	-234.73872							-666.78674	1648.12964	-11.54875	-473.61713	1491.28125	-321.82138	-748.12939	1428.22583	-24.95367	-569.95349	1291.33936	-127.82233	-711.81177	1506.59436	-251.04791	-448.85986	1186.78491	-422.87210	-808.76807	1142.78735	1.93560	-437.48505	944.09711	-351.96082	-618.65784	1019.35730	74.97888	-479.97174	903.44513	-249.20229	-698.78265	914.54987	-69.68524	-752.51166	965.65979	-382.35593	-501.70444	487.20465	-215.66209	-850.22363	470.76212	-157.82251	-536.08099	87.22000	-159.56177	-918.98016	124.87086	-429.09363	
430	4.290	-618.41876	1717.90222	-229.45105							-660.21350	1648.28564	-5.73861	-469.50150	1492.34766	-318.36594	-744.13348	1429.85205	-20.01298	-564.08600	1293.36304	-122.37934	-707.00806	1506.91260	-246.06696	-444.06461	1187.57068	-417.47879	-803.70801	1143.91333	7.38763	-432.37518	945.11969	-344.79483	-614.01385	1020.25970	81.41064	-474.52130	905.40350	-243.88857	-691.48553	916.48492	-62.97385	-747.93372	966.22076	-376.37158	-499.04477	489.28635	-209.90446	-843.67004	471.61099	-150.43523	-536.05371	87.10307	-159.11566	-918.45099	129.53270	-423.75824	
431	4.300	-614.43243	1720.11304	-222.74524							-653.02692	1648.69482	0.66290	-465.87534	1494.29321	-315.00632	-740.77753	1432.29114	-18.71962	-559.30103	1294.88574	-117.74377	-702.67645	1508.20190	-241.31557	-439.93961	1188.65076	-410.18475	-799.13678	1145.20251	12.92886	-426.83026	946.42218	-338.94867	-609.75531	1021.69836	86.71153	-469.84470	907.18829	-237.95782	-685.80530	917.57013	-57.58996	-743.44043	967.30634	-371.31052	-496.38104	490.86951	-205.04590	-836.17963	472.91312	-141.55174	-535.99585	86.88669	-158.70157	-917.18933	136.07698	-419.86133	
432	4.310										-646.03534	1649.99731	5.67317	-461.75946	1496.03552	-310.47574	-733.44147	1431.95874	-9.33025	-553.52039	1297.33167	-113.25567	-699.29559	1509.69458	-237.29584	-435.80875	1190.56189	-405.10608	-794.27081	1146.62744	17.73590	-421.42151	948.06866	-333.20013	-605.10266	1022.72083	92.52899	-463.92587	909.14838	-231.38646	-678.72485	920.03741	-51.05483	-739.00909	967.88861	-365.00894	-494.32361	492.37195	-200.14279	-828.21387	474.37997	-131.50838	-536.06036	86.84705	-157.60403	-915.27405	141.38321	-412.38464	
433	4.320										-638.35046	1651.04810	12.34488	-458.11057	1497.62671	-306.73288	-729.17560	1437.49072	-1.13544	-547.77020	1299.04077	-107.64835	-695.60968	1511.31226	-233.27557	-431.89075	1190.79370	-400.47162	-789.71130	1147.74475	22.87251	-417.53922	949.57733	-328.32672	-600.22107	1024.36816	97.71068	-458.87540	911.52966	-226.02998	-671.91998	921.22028	-45.54459	-734.40741	968.85297	-358.69958	-492.05872	492.98444	-195.69768	-820.44019	475.02374	-122.57772	-535.59302	86.36295	-156.86020	-913.44250	148.35884	-405.56372	
434	4.330										-631.49341	1652.34338	17.93941	-454.90146	1499.58582	-303.22690	-723.71362	1438.65759	3.66179	-542.86810	1300.95203	-103.10210	-691.50763	1511.23779	-228.63354	-427.87704	1192.75281	-396.71106	-785.19244	1149.37195	28.01818	-411.17624	951.49884	-321.16849	-595.63330	1025.66943	103.13332	-452.27740	914.47949	-221.14645	-664.36816	925.23724	-38.67356	-729.84045	969.53448	-352.23364	-488.72342	493.78580	-191.17857	-811.22278	478.39520	-111.59020	-535.34570	86.20221	-156.75594	-912.30499	154.75908	-395.76178	
